# AST/ASF file generated using VICON BodyLanguage
# -----------------------------------------------
:version 1.10
:name VICON
:units
  mass 1.0
  length 0.45
  angle deg
:documentation
   .ast/.asf automatically generated from VICON data using
   VICON BodyBuilder and BodyLanguage model FoxedUp or BRILLIANT.MOD
:root
   order TX TY TZ RX RY RZ
   axis XYZ
   position 0 0 0  
   orientation 0 0 0 
:bonedata
  begin
     id 1 
     name lhipjoint
     direction 0.62366 -0.717238 0.310833 
     length 2.53602 
     axis 0 0 0  XYZ
  end
  begin
     id 2 
     name lfemur
     direction 0.34202 -0.939693 0  
     length 7.40817  
     axis 0 0 20  XYZ
    dof rx ry rz
    limits (-160.0 20.0)
           (-70.0 70.0)
           (-60.0 70.0)
  end
  begin
     id 3 
     name ltibia
     direction 0.34202 -0.939693 0   
     length 7.7045   
     axis 0 0 20   XYZ
    dof rx
    limits (-10.0 170.0)
  end
  begin
     id 4 
     name lfoot
     direction 0.0673888 -0.185149 0.980397   
     length 2.09456   
     axis -90 7.62852e-016 20   XYZ
    dof rx rz
    limits (-45.0 90.0)
           (-70.0 20.0)
  end
  begin
     id 5 
     name ltoes
     direction 1.53575e-011 -4.21994e-011 1   
     length 1.05543   
     axis -90 7.62852e-016 20   XYZ
    dof rx
    limits (-90.0 20.0)
  end
  begin
     id 6 
     name rhipjoint
     direction -0.489018 -0.800347 0.346851   
     length 2.27268  
     axis 0 0 0  XYZ 
  end
  begin
     id 7 
     name rfemur
     direction -0.34202 -0.939693 0   
     length 7.55487   
     axis 0 0 -20   XYZ
    dof rx ry rz
    limits (-160.0 20.0)
           (-70.0 70.0)
           (-70.0 60.0)
  end
  begin
     id 8 
     name rtibia
     direction -0.34202 -0.939693 0   
     length 7.78969   
     axis 0 0 -20   XYZ
    dof rx
    limits (-10.0 170.0)
 end
 begin
     id 9 
     name rfoot
     direction -0.0859318 -0.236096 0.967923   
     length 2.19143  
     axis -90 -7.62852e-016 -20   XYZ
    dof rx rz
    limits (-45.0 90.0)
           (-20.0 70.0)
  end
  begin
     id 10 
     name rtoes
     direction -1.53538e-011 -4.21989e-011 1   
     length 1.09845   
     axis -90 -7.62852e-016 -20   XYZ
    dof rx
    limits (-90.0 20.0)
  end
  begin
     id 11 
     name lowerback
     direction -0.00762546 0.998978 -0.0445553   
     length 1.98161   
     axis 0 0 0   XYZ
    dof rx ry rz
    limits (-20.0 45.0)
           (-30.0 30.0)
           (-30.0 30.0)
  end
  begin
     id 12 
     name upperback
     direction 0.0422361 0.998867 -0.0219156   
     length 1.97558   
     axis 0 0 0   XYZ
    dof rx ry rz
    limits (-20.0 45.0)
           (-30.0 30.0)
           (-30.0 30.0)
  end
  begin
     id 13 
     name thorax
     direction 0.0442465 0.999021 7.47603e-005   
     length 1.97799   
     axis 0 0 0   XYZ
    dof rx ry rz
    limits (-20.0 45.0)
           (-30.0 30.0)
           (-30.0 30.0)
  end
  begin
     id 14 
     name lowerneck
     direction 0.00312169 0.984641 0.174564   
     length 1.78995   
     axis 0 0 0   XYZ
    dof rx ry rz
    limits (-20.0 45.0)
           (-30.0 30.0)
           (-30.0 30.0)
  end
  begin
     id 15 
     name upperneck
     direction -0.0383028 0.985255 -0.166749   
     length 1.83053   
     axis 0 0 0   XYZ
    dof rx ry rz
    limits (-20.0 45.0)
           (-30.0 30.0)
           (-30.0 30.0)
  end
  begin
     id 16
     name head
     direction -0.0129546 0.997059 -0.0755386  
     length 1.84088  
     axis 0 0 0   XYZ
    dof rx ry rz
    limits (-20.0 45.0)
           (-30.0 30.0)
           (-30.0 30.0)
  end
  begin
     id 17 
     name lclavicle
     direction 0.912857 0.370519 -0.171488  
     length 3.51279  
     axis 0 0 0   XYZ
    dof ry rz
    limits (-20.0 10.0)
           (0.0 20.0)
  end
  begin
     id 18 
     name lhumerus
     direction 1 -4.48962e-011 3.64361e-027   
     length 4.95663   
     axis 180 -30 -90   XYZ
    dof rx ry rz
    limits (-60.0 90.0)
           (-90.0 90.0)
           (-90.0 90.0)
  end
  begin
     id 19
     name lradius
     direction 1 -4.48974e-011 5.97202e-027   
     length 3.38177   
     axis 180 -30 -90   XYZ
    dof rx
    limits (-10.0 170.0)
  end
  begin
     id 20
     name lwrist
     direction 1 -4.4896e-011 9.83288e-027   
     length 1.69088   
     axis -9.31221e-015 90 90   XYZ
    dof ry
    limits (-180.0 0.0)
 end
  begin
     id 21 
     name lhand
     direction 1 -4.4902e-011 1.96551e-026   
     length 0.662909   
     axis -1.25475e-014 90 90   XYZ
    dof rx rz
    limits (-90.0 90.0)
           (-45.0 45.0)
  end
  begin
     id 22 
     name lfingers
     direction 1 -4.48971e-011 3.93277e-026   
     length 0.534454   
     axis -2.50945e-014 90 90   XYZ
    dof rx
    limits (0.0 90.0)
  end
  begin
     id 23
     name lthumb
     direction 0.707107 -6.34933e-011 0.707107   
     length 0.767373   
     axis -90 45 -4.80359e-014   XYZ
    dof rx rz
    limits (-45.0 45.0)
           (-45.0 45.0)
  end
  begin
     id 24 
     name rclavicle
     direction -0.900919 0.395364 -0.178976   
     length 3.40627  
     axis 0 0 0   XYZ 
    dof ry rz
    limits (-10.0 20.0)
           (-20.0 0.0)
  end
  begin
     id 25 
     name rhumerus
     direction -1 -4.48969e-011 1.03875e-027  
     length 5.08365   
     axis 180 30 90   XYZ
    dof rx ry rz
    limits (-90.0 60.0)
           (-90.0 90.0)
           (-90.0 90.0)
  end
  begin
     id 26 
     name rradius
     direction -1 -4.48951e-011 5.02733e-027   
     length 3.35984   
     axis 180 30 90   XYZ
    dof rx
    limits (-10.0 170.0)
  end
  begin
     id 27 
     name rwrist
     direction -1 -4.49011e-011 9.82828e-027   
     length 1.67992   
     axis -9.31221e-015 -90 -90   XYZ
    dof ry
    limits (-180.0 0.0)
  end
  begin
     id 28
     name rhand
     direction -1 -4.48894e-011 1.96774e-026   
     length 0.820764   
     axis -1.25475e-014 -90 -90   XYZ
    dof rx rz
    limits (-90.0 90.0)
           (-45.0 45.0)
  end
  begin
     id 29
     name rfingers
     direction -1 -4.49095e-011 3.92833e-026   
     length 0.661721   
     axis -2.50945e-014 -90 -90   XYZ
    dof rx
    limits (0.0 90.0)
  end
  begin
     id 30
     name rthumb
     direction -0.707107 -6.34881e-011 0.707107   
     length 0.950103   
     axis -90 -45 4.80359e-014   XYZ
    dof rx rz
    limits (-45.0 45.0)
           (-45.0 45.0)
  end
:hierarchy
  begin
    root lhipjoint rhipjoint lowerback
    lhipjoint lfemur
    lfemur ltibia
    ltibia lfoot
    lfoot ltoes
    rhipjoint rfemur
    rfemur rtibia
    rtibia rfoot
    rfoot rtoes
    lowerback upperback
    upperback thorax
    thorax lowerneck lclavicle rclavicle
    lowerneck upperneck
    upperneck head
    lclavicle lhumerus
    lhumerus lradius
    lradius lwrist
    lwrist lhand lthumb
    lhand lfingers
    rclavicle rhumerus
    rhumerus rradius
    rradius rwrist
    rwrist rhand rthumb
    rhand rfingers
  end

#!OML:ASF I:\golf\golf\golf 2\Subject 1\2002-09-07\Subject1.ASF
:FULLY-SPECIFIED
:DEGREES
1
root 1.61703 18.1683 -8.6477 8.42189 -6.31281 -2.30884
lowerback -7.4722 -1.25871 -6.18806
upperback -0.942063 -1.30714 3.65819
thorax 3.44186 -0.761856 7.20951
lowerneck -14.8811 -10.3829 -6.50732
upperneck 21.323 -12.6828 -0.893215
head 9.55139 -6.53463 -0.88244
rclavicle 1.76173e-014 -1.19271e-015
rhumerus -29.0027 -2.25572 -82.624
rradius 25.1107
rwrist -9.33546
rhand -23.4657 15.8283
rfingers 7.12502
rthumb 2.99334 -14.1305
lclavicle 1.76173e-014 -1.19271e-015
lhumerus -30.2008 26.9004 76.4154
lradius 20.4487
lwrist -3.15632
lhand -7.59437 34.3299
lfingers 7.12502
lthumb 18.2991 63.4891
rfemur -14.1471 -2.09572 18.7553
rtibia 24.0005
rfoot -12.1403 -9.11272
rtoes 0.827691
lfemur -9.04315 3.01105 -17.3082
ltibia 20.1947
lfoot -13.8568 3.96851
ltoes -7.0048
2
root 1.61977 18.1686 -8.65096 8.44196 -6.33896 -2.35971
lowerback -7.41545 -1.26724 -6.15662
upperback -0.95042 -1.32554 3.69604
thorax 3.40468 -0.769295 7.23033
lowerneck -14.9013 -10.3454 -6.58149
upperneck 21.3711 -12.6127 -0.887737
head 9.57632 -6.50687 -0.863383
rclavicle -7.23079e-015 5.1684e-015
rhumerus -28.9898 -2.24425 -82.5658
rradius 25.1279
rwrist -9.08537
rhand -23.4805 15.8011
rfingers 7.12502
rthumb 2.97911 -14.1579
lclavicle -7.23079e-015 5.1684e-015
lhumerus -30.2433 27.0928 76.3755
lradius 20.4162
lwrist -3.26977
lhand -7.53173 34.2738
lfingers 7.12502
lthumb 18.3594 63.4274
rfemur -14.1373 -1.86319 18.7981
rtibia 23.9441
rfoot -12.0954 -9.28563
rtoes 0.749059
lfemur -9.07999 3.01947 -17.2661
ltibia 20.2228
lfoot -13.8082 4.03232
ltoes -7.39973
3
root 1.6242 18.1699 -8.65245 8.46534 -6.43317 -2.41348
lowerback -7.41686 -1.21538 -6.07666
upperback -0.934988 -1.26149 3.66766
thorax 3.40822 -0.736511 7.1604
lowerneck -14.9022 -10.3275 -6.51933
upperneck 21.3815 -12.6067 -0.873272
head 9.57623 -6.49769 -0.867054
rclavicle -7.03201e-015 4.37326e-015
rhumerus -28.9339 -2.44133 -82.5596
rradius 24.987
rwrist -9.1086
rhand -23.4538 16.0342
rfingers 7.12502
rthumb 3.00489 -13.9244
lclavicle -7.03201e-015 4.37326e-015
lhumerus -30.1696 27.0646 76.3728
lradius 20.3756
lwrist -3.35262
lhand -7.4773 34.3939
lfingers 7.12502
lthumb 18.4117 63.5425
rfemur -14.1544 -1.77808 18.8282
rtibia 23.9162
rfoot -11.976 -9.27415
rtoes -0.234778
lfemur -9.10627 3.11314 -17.2385
ltibia 20.2463
lfoot -13.8179 4.06036
ltoes -7.75282
4
root 1.62906 18.1694 -8.65336 8.42067 -6.50895 -2.4126
lowerback -7.35671 -1.15853 -6.04506
upperback -0.898695 -1.18891 3.615
thorax 3.39835 -0.700055 7.09368
lowerneck -15.2594 -10.298 -6.88118
upperneck 21.9091 -12.6038 -0.294176
head 9.89696 -6.45252 -0.661307
rclavicle -1.66979e-014 -1.23246e-014
rhumerus -28.8994 -2.57907 -82.5791
rradius 24.8836
rwrist -9.2216
rhand -23.5492 16.1429
rfingers 7.12502
rthumb 2.91276 -13.8169
lclavicle -1.66979e-014 -1.23246e-014
lhumerus -30.151 26.8305 76.423
lradius 20.4287
lwrist -3.23941
lhand -7.55175 34.348
lfingers 7.12502
lthumb 18.3401 63.5034
rfemur -14.0981 -1.82837 18.7985
rtibia 23.8696
rfoot -11.8291 -9.19906
rtoes -1.54222
lfemur -9.07291 3.17238 -17.265
ltibia 20.2852
lfoot -13.8874 4.05513
ltoes -8.02703
5
root 1.63273 18.1703 -8.65649 8.40073 -6.49625 -2.41295
lowerback -7.2676 -1.154 -6.03059
upperback -0.886941 -1.1878 3.59835
thorax 3.35984 -0.698063 7.06797
lowerneck -15.3353 -10.2632 -6.88375
upperneck 21.9665 -12.5487 -0.297537
head 9.92963 -6.42645 -0.660514
rclavicle -1.99033e-014 4.53229e-014
rhumerus -28.8997 -2.59115 -82.5806
rradius 24.8843
rwrist -9.20324
rhand -23.718 16.0482
rfingers 7.12502
rthumb 2.74966 -13.9139
lclavicle -1.99033e-014 4.53229e-014
lhumerus -30.1991 26.7836 76.4318
lradius 20.4854
lwrist -3.23185
lhand -7.54432 34.2362
lfingers 7.12502
lthumb 18.3473 63.3909
rfemur -14.0608 -1.85593 18.7871
rtibia 23.8099
rfoot -11.7797 -9.17362
rtoes -1.55911
lfemur -9.09125 3.14116 -17.2717
ltibia 20.3363
lfoot -13.9169 4.05254
ltoes -8.26595
6
root 1.63535 18.1726 -8.66004 8.43111 -6.44871 -2.52108
lowerback -7.16516 -1.16006 -5.9204
upperback -0.925076 -1.21071 3.62322
thorax 3.26461 -0.703505 7.0289
lowerneck -15.0365 -10.268 -6.45987
upperneck 21.5377 -12.5188 -0.924971
head 9.64552 -6.45633 -0.894255
rclavicle 7.40473e-015 2.38542e-015
rhumerus -28.982 -2.5492 -82.5926
rradius 24.9285
rwrist -9.21137
rhand -23.8725 15.9194
rfingers 7.12502
rthumb 2.60046 -14.0445
lclavicle 7.40473e-015 2.38542e-015
lhumerus -30.2688 26.681 76.4708
lradius 20.5493
lwrist -3.09804
lhand -7.5851 34.3228
lfingers 7.12502
lthumb 18.308 63.4812
rfemur -14.0627 -1.85413 18.9083
rtibia 23.7499
rfoot -11.7681 -9.19961
rtoes -1.28078
lfemur -9.1622 3.16381 -17.1487
ltibia 20.3885
lfoot -13.9554 4.00589
ltoes -7.82649
7
root 1.63846 18.173 -8.66104 8.4314 -6.41748 -2.59635
lowerback -7.0916 -1.16149 -5.85986
upperback -0.928783 -1.22168 3.64461
thorax 3.22055 -0.706644 7.01604
lowerneck -15.1202 -10.2386 -6.38949
upperneck 21.6313 -12.4648 -1.03346
head 9.67973 -6.43708 -0.941388
rclavicle 2.52457e-014 -2.94201e-014
rhumerus -28.9895 -2.52142 -82.5865
rradius 24.9339
rwrist -9.2555
rhand -23.8915 15.8093
rfingers 7.12502
rthumb 2.58211 -14.1548
lclavicle 2.52457e-014 -2.94201e-014
lhumerus -30.3169 26.4057 76.5829
lradius 20.6562
lwrist -2.77157
lhand -7.74153 34.4111
lfingers 7.12502
lthumb 18.1575 63.5836
rfemur -14.0318 -1.8841 18.9892
rtibia 23.6961
rfoot -11.7513 -9.20254
rtoes -1.16244
lfemur -9.18017 3.17813 -17.0709
ltibia 20.4264
lfoot -13.9986 4.00099
ltoes -7.49743
8
root 1.64262 18.173 -8.65925 8.41845 -6.42133 -2.55483
lowerback -7.06253 -1.17133 -5.91708
upperback -0.932518 -1.23134 3.63124
thorax 3.20285 -0.711337 7.03404
lowerneck -15.1058 -10.2178 -6.38649
upperneck 21.6704 -12.4326 -1.05849
head 9.68824 -6.42497 -0.946368
rclavicle -4.12478e-015 8.34896e-015
rhumerus -28.9893 -2.49461 -82.5876
rradius 24.9224
rwrist -9.29769
rhand -23.8513 15.8127
rfingers 7.12502
rthumb 2.62096 -14.1509
lclavicle -4.12478e-015 8.34896e-015
lhumerus -30.3956 26.2631 76.6151
lradius 20.7299
lwrist -2.61872
lhand -7.83725 34.3978
lfingers 7.12502
lthumb 18.0654 63.5788
rfemur -13.9976 -1.96387 18.9312
rtibia 23.6573
rfoot -11.7246 -9.13253
rtoes -1.36445
lfemur -9.175 3.15487 -17.1375
ltibia 20.4485
lfoot -13.9964 4.03103
ltoes -7.50148
9
root 1.646 18.1742 -8.65802 8.45316 -6.43418 -2.54823
lowerback -7.06531 -1.17637 -5.91754
upperback -0.972709 -1.23717 3.60773
thorax 3.16278 -0.711336 7.00848
lowerneck -15.0763 -10.1862 -6.48652
upperneck 21.8336 -12.4091 -0.901186
head 9.75858 -6.40435 -0.88068
rclavicle -9.72802e-015 2.38542e-014
rhumerus -29.0872 -2.44396 -82.642
rradius 24.9662
rwrist -9.3915
rhand -23.8757 15.8692
rfingers 7.12502
rthumb 2.59743 -14.0947
lclavicle -9.72802e-015 2.38542e-014
lhumerus -30.4399 26.1419 76.6281
lradius 20.7586
lwrist -2.55857
lhand -7.85983 34.4099
lfingers 7.12502
lthumb 18.0437 63.5929
rfemur -14.029 -1.98228 18.9134
rtibia 23.6539
rfoot -11.748 -9.07533
rtoes -1.09438
lfemur -9.21291 3.18611 -17.155
ltibia 20.4405
lfoot -13.9643 3.95982
ltoes -7.06317
10
root 1.64756 18.1748 -8.65992 8.5167 -6.4198 -2.54344
lowerback -7.15464 -1.19119 -5.95864
upperback -0.943211 -1.24944 3.61009
thorax 3.24669 -0.722051 7.03296
lowerneck -15.2537 -10.1359 -6.69346
upperneck 22.0743 -12.3618 -0.566281
head 9.91434 -6.3575 -0.750804
rclavicle 3.39922e-014 -1.63003e-014
rhumerus -29.0625 -2.37063 -82.6775
rradius 25.0257
rwrist -9.54349
rhand -23.9137 15.956
rfingers 7.12502
rthumb 2.56071 -14.0084
lclavicle 3.39922e-014 -1.63003e-014
lhumerus -30.3119 26.1472 76.7213
lradius 20.7378
lwrist -2.62468
lhand -7.83086 34.3375
lfingers 7.12502
lthumb 18.0716 63.518
rfemur -14.1141 -1.99506 18.9083
rtibia 23.6701
rfoot -11.787 -9.07235
rtoes -0.725505
lfemur -9.28304 3.20079 -17.1579
ltibia 20.4134
lfoot -13.9303 3.87929
ltoes -6.70787
